:SAMPLES-PER-SECOND 30
:FULLY-SPECIFIED
:DEGREES
378
root  34.74556029 36.5240833 -14.8463467 7.918886185 -0.8451960683 3.316680193
lowerback  -8.008410454 -0.1203833818 -0.03018960543
upperback  -3.513930082 0.2352470011 -2.980220079
thorax  0.8534709811 0.2583014369 -3.036999941
lowerneck  -14.96809959 2.03147006 1.079239964
upperneck  17.23940086 1.34623003 4.312540054
head  7.77368021 1.003399968 1.377020121
lclavicle  0 -4.497500157e-015 -2.743230041e-014
lhumerus  -45.6413002 26.20030022 68.61109924
lradius  1.785696099e-006 -6.507048965e-006 30.38134193
lwrist  4.824992743e-007 -3.790274832e-007 -26.0048008
lhand  -4.405300586e-031 -36.72040176 -10.72439957
lfingers  90 7.125020027 -90
lthumb  94.74225044 -25.56571091 100.8814038
rclavicle  0 -4.497500157e-015 -2.743230041e-014
rhumerus  -64.78829956 -43.54759979 -39.46409988
rradius  -5.16745672e-007 2.214343908e-008 34.17819977
rwrist  -0.0001064338358 0.02974390797 -145.4859924
rhand  -1.775242907e-031 5.986219883 -7.881830215
rfingers  -90 -7.125020027 -90
rthumb  -84.88329923 -8.341505645 -58.31643225
rfemur  -10.95048714 15.77793503 14.25814056
rtibia  -1.326091886 0.4607348144 20.76358223
rfoot  -0.1048542708 -19.3321209 -39.10913086
rtoes  4.099939364 19.59211694 -102.066185
lfemur  -7.161278248 -17.83431244 -19.79482269
ltibia  2.938061714 0.1101327688 13.98287201
lfoot  0.5599474311 -25.38327789 35.46009827
ltoes  -8.506763157 -18.16811184 -115.6267749
379
root  34.74774398 36.52366878 -14.849026 7.906179428 -0.8527817726 3.31331563
lowerback  -8.044799805 -0.1181671172 -0.0229303427
upperback  -3.513930082 0.2468889952 -2.973659992
thorax  0.8788819909 0.2578689456 -3.033279896
lowerneck  -14.97389984 2.00316 1.031329989
upperneck  17.24315834 1.314659834 4.329880238
head  7.771424294 0.986989975 1.387359977
lclavicle  0 -4.497500157e-015 -2.743230041e-014
lhumerus  -45.66043091 26.16017342 68.66835022
lradius  1.785696099e-006 -6.507048965e-006 30.39350128
lwrist  4.824992743e-007 -3.790274832e-007 -25.90909958
lhand  -4.405300586e-031 -36.72040176 -10.72439957
lfingers  90 7.125020027 -90
lthumb  94.74225044 -25.56571091 100.8814038
rclavicle  0 -4.497500157e-015 -2.743230041e-014
rhumerus  -64.51670074 -43.3608017 -39.98789978
rradius  -5.16745672e-007 2.214343908e-008 34.21500015
rwrist  -0.0001064338358 0.02974390797 -145.2350006
rhand  -1.775242907e-031 5.986219883 -7.881830215
rfingers  -90 -7.125020027 -90
rthumb  -84.88329923 -8.341505645 -58.31643225
rfemur  -10.9377594 15.78170967 14.26008224
rtibia  -1.326972485 0.4561614692 20.76313591
rfoot  -0.1023849472 -19.34136963 -39.10995483
rtoes  4.099939364 19.59211694 -102.066185
lfemur  -7.15705061 -17.87147522 -19.7948494
ltibia  2.927247763 0.09475446492 14.00438309
lfoot  0.5760267973 -25.36480522 35.5225296
ltoes  -8.506763157 -18.16811184 -115.6267749
380
root  34.7492218 36.52298995 -14.85217237 7.894580364 -0.8709567785 3.322463751
lowerback  -8.076680183 -0.1188609973 -0.01456452161
upperback  -3.513930082 0.2452030033 -2.96213007
thorax  0.8997120261 0.2557510138 -3.026180029
lowerneck  -14.96409988 1.979640007 1.002920032
upperneck  17.24954605 1.286849976 4.341010094
head  7.76941824 0.9726909995 1.392677188
lclavicle  0 -4.497500157e-015 -2.743230041e-014
lhumerus  -45.68759918 26.19099998 68.66549683
lradius  1.785696099e-006 -6.507048965e-006 30.3812027
lwrist  4.824992743e-007 -3.790274832e-007 -25.93810081
lhand  -4.405300586e-031 -36.72040176 -10.72439957
lfingers  90 7.125020027 -90
lthumb  94.74225044 -25.56571091 100.8814038
rclavicle  0 -4.497500157e-015 -2.743230041e-014
rhumerus  -64.22250366 -43.14680099 -40.58100128
rradius  -5.16745672e-007 2.214343908e-008 34.2887001
rwrist  -0.0001064338358 0.02974390797 -145.1799927
rhand  -1.775242907e-031 5.986219883 -7.881830215
rfingers  -90 -7.125020027 -90
rthumb  -84.88329923 -8.341505645 -58.31643225
rfemur  -10.93347836 15.77127266 14.24748135
rtibia  -1.33213079 0.4508613646 20.76195335
rfoot  -0.09943036735 -19.3405323 -39.08705902
rtoes  4.099939364 19.59211694 -102.066185
lfemur  -7.163219929 -17.93096924 -19.81164932
ltibia  2.914643764 0.05559490249 14.03727436
lfoot  0.5832808614 -25.30404282 35.57488251
ltoes  -8.506763157 -18.16811184 -115.6267749
381
root  34.75206931 36.52275266 -14.85358111 7.900346279 -0.8856326342 3.33638978
lowerback  -8.066349983 -0.125429973 -0.006926761009
upperback  -3.513930082 0.2343329936 -2.948889971
thorax  0.8942790031 0.2497950047 -3.017699957
lowerneck  -14.95199966 1.947340012 1.001739979
upperneck  17.25320053 1.24684 4.317259789
head  7.75909853 0.9521827698 1.387556314
lclavicle  0 -4.497500157e-015 -2.743230041e-014
lhumerus  -45.7215004 26.22890091 68.64129639
lradius  1.785696099e-006 -6.507048965e-006 30.35849953
lwrist  4.824992743e-007 -3.790274832e-007 -25.9993
lhand  -4.405300586e-031 -36.72040176 -10.72439957
lfingers  90 7.125020027 -90
lthumb  94.74225044 -25.56571091 100.8814038
rclavicle  0 -4.497500157e-015 -2.743230041e-014
rhumerus  -64.00859833 -42.98249817 -41.04310226
rradius  -5.16745672e-007 2.214343908e-008 34.35589981
rwrist  -0.0001064338358 0.02974390797 -145.3269958
rhand  -1.775242907e-031 5.986219883 -7.881830215
rfingers  -90 -7.125020027 -90
rthumb  -84.88329923 -8.341505645 -58.31643225
rfemur  -10.94352722 15.75746632 14.21963882
rtibia  -1.338043928 0.4123636186 20.76155472
rfoot  -0.1135871038 -19.39943123 -39.09742737
rtoes  4.099939364 19.59211694 -102.066185
lfemur  -7.194263458 -17.93242455 -19.82441902
ltibia  2.902997732 0.04815034196 14.06993675
lfoot  0.5880540609 -25.31324196 35.57335663
ltoes  -8.506763157 -18.16811184 -115.6267749
382
root  34.75582093 36.52290885 -14.85540435 7.921161175 -0.9119609594 3.349144459
lowerback  -8.050109863 -0.1359680444 -0.00730579393
upperback  -3.513930082 0.2185750008 -2.936630011
thorax  0.8878162503 0.2412820011 -3.00296998
lowerneck  -14.94460011 1.932970047 0.9960309863
upperneck  17.24959946 1.226240039 4.326479912
head  7.755769253 0.9428244233 1.391022205
lclavicle  0 -4.497500157e-015 -2.743230041e-014
lhumerus  -45.73139954 26.20689964 68.64649963
lradius  1.785696099e-006 -6.507048965e-006 30.34930038
lwrist  4.824992743e-007 -3.790274832e-007 -25.92329979
lhand  -4.405300586e-031 -36.72040176 -10.72439957
lfingers  90 7.125020027 -90
lthumb  94.74225044 -25.56571091 100.8814038
rclavicle  0 -4.497500157e-015 -2.743230041e-014
rhumerus  -63.79059982 -42.82989883 -41.4754982
rradius  -5.16745672e-007 2.214343908e-008 34.40340042
rwrist  -0.0001064338358 0.02974390797 -145.3280029
rhand  -1.775242907e-031 5.986219883 -7.881830215
rfingers  -90 -7.125020027 -90
rthumb  -84.88329923 -8.341505645 -58.31643225
rfemur  -10.98010349 15.75410843 14.19229412
rtibia  -1.34799242 0.3833917379 20.77446556
rfoot  -0.1262656301 -19.43597412 -39.09693527
rtoes  4.099939364 19.59211694 -102.066185
lfemur  -7.265374184 -17.93801308 -19.82810402
ltibia  2.873113632 0.04225959256 14.13474751
lfoot  0.5960529447 -25.3365593 35.57830811
ltoes  -8.506763157 -18.16811184 -115.6267749
383
root  34.75850924 36.52190261 -14.85612824 7.91989851 -0.9383391142 3.351166487
lowerback  -8.044309616 -0.1413449794 -0.01151797548
upperback  -3.513930082 0.2105980068 -2.927550077
thorax  0.8861960173 0.2371030003 -2.994999886
lowerneck  -14.94130039 1.908740044 0.9588140249
upperneck  17.27260017 1.192109942 4.35890007
head  7.755856037 0.9262797832 1.402588487
lclavicle  0 -4.497500157e-015 -2.743230041e-014
lhumerus  -45.75960159 26.17020035 68.69539642
lradius  1.785696099e-006 -6.507048965e-006 30.37669945
lwrist  4.824992743e-007 -3.790274832e-007 -25.79199982
lhand  -4.405300586e-031 -36.72040176 -10.72439957
lfingers  90 7.125020027 -90
lthumb  94.74225044 -25.56571091 100.8814038
rclavicle  0 -4.497500157e-015 -2.743230041e-014
rhumerus  -63.5603981 -42.66960144 -41.89080048
rradius  -5.16745672e-007 2.214343908e-008 34.4695015
rwrist  -0.0001064338358 0.02974390797 -145.3910065
rhand  -1.775242907e-031 5.986219883 -7.881830215
rfingers  -90 -7.125020027 -90
rthumb  -84.88329923 -8.341505645 -58.31643225
rfemur  -10.98877525 15.76656914 14.18343449
rtibia  -1.350354671 0.3800149858 20.77935791
rfoot  -0.1145326346 -19.43372536 -39.06007004
rtoes  4.099939364 19.59211694 -102.066185
lfemur  -7.275501251 -17.96514511 -19.8270874
ltibia  2.861226082 0.02124411613 14.16024971
lfoot  0.601568222 -25.30833244 35.61380005
ltoes  -8.506763157 -18.16811184 -115.6267749
384
root  34.76314695 36.5204338 -14.85661784 7.915151596 -0.9790955782 3.349251509
lowerback  -8.063689232 -0.1435511559 -0.01922678389
upperback  -3.513930082 0.2071720064 -2.926219702
thorax  0.9001330137 0.2352436483 -2.996860027
lowerneck  -14.92790031 1.897400022 0.9819959998
upperneck  17.25989914 1.17050004 4.361599922
head  7.758884907 0.9180311561 1.401791096
lclavicle  0 -4.497500157e-015 -2.743230041e-014
lhumerus  -45.76979828 26.13879967 68.66860199
lradius  1.785696099e-006 -6.507048965e-006 30.3701992
lwrist  4.824992743e-007 -3.790274832e-007 -25.79770088
lhand  -4.405300586e-031 -36.72040176 -10.72439957
lfingers  90 7.125020027 -90
lthumb  94.74225044 -25.56571091 100.8814038
rclavicle  0 -4.497500157e-015 -2.743230041e-014
rhumerus  -63.29909515 -42.51919937 -42.36370468
rradius  -5.16745672e-007 2.214343908e-008 34.54000092
rwrist  -0.0001064338358 0.02974390797 -145.4629974
rhand  -1.775242907e-031 5.986219883 -7.881830215
rfingers  -90 -7.125020027 -90
rthumb  -84.88329923 -8.341505645 -58.31643225
rfemur  -11.00221729 15.74650097 14.1713438
rtibia  -1.34605372 0.3955980837 20.79574013
rfoot  -0.1047768295 -19.40740585 -38.99625778
rtoes  4.099939364 19.59211694 -102.066185
lfemur  -7.28709507 -17.92617989 -19.82104874
ltibia  2.840599537 0.01699927635 14.17996025
lfoot  0.6036153436 -25.30954742 35.63423538
ltoes  -8.506763157 -18.16811184 -115.6267749
385
root  34.7653847 36.51865261 -14.85782683 7.910103321 -1.005284071 3.343318462
lowerback  -8.059474945 -0.1444555521 -0.02790993266
upperback  -3.513930082 0.2015579939 -2.928319693
thorax  0.8963720202 0.2342726588 -2.994250059
lowerneck  -14.93889999 1.886029959 0.9646840096
upperneck  17.28479958 1.150189996 4.388999939
head  7.767640114 0.9097211361 1.412992477
lclavicle  0 -4.497500157e-015 -2.743230041e-014
lhumerus  -45.80289841 26.13800049 68.66130066
lradius  1.785696099e-006 -6.507048965e-006 30.37589836
lwrist  4.824992743e-007 -3.790274832e-007 -25.79802513
lhand  -4.405300586e-031 -36.72040176 -10.72439957
lfingers  90 7.125020027 -90
lthumb  94.74225044 -25.56571091 100.8814038
rclavicle  0 -4.497500157e-015 -2.743230041e-014
rhumerus  -62.96359634 -42.27819824 -42.93360519
rradius  -5.16745672e-007 2.214343908e-008 34.64789963
rwrist  -0.0001064338358 0.02974390797 -145.6410065
rhand  -1.775242907e-031 5.986219883 -7.881830215
rfingers  -90 -7.125020027 -90
rthumb  -84.88329923 -8.341505645 -58.31643225
rfemur  -11.01055527 15.77464771 14.16930389
rtibia  -1.336919546 0.409819901 20.81314278
rfoot  -0.1122916862 -19.40568161 -38.9928627
rtoes  4.099939364 19.59211694 -102.066185
lfemur  -7.295407772 -17.89259911 -19.80803108
ltibia  2.819711447 0.01418650895 14.18926048
lfoot  0.5852892399 -25.30356026 35.61569214
ltoes  -8.506763157 -18.16811184 -115.6267749
